<svg height="512" viewBox="0 0 60 60" width="512" xmlns="http://www.w3.org/2000/svg"><g id="Icons"><circle cx="30" cy="30" fill="#4fba6f" r="17"/><path d="m1 30a28.886 28.886 0 0 1 9.17-21.15l-2-2a.542.542 0 0 1 .31-.93l7.9-.92a.568.568 0 0 1 .62.62l-.92 7.9a.549.549 0 0 1 -.94.31l-2.14-2.14a25 25 0 0 0 23.1 42.559 1.983 1.983 0 0 1 2.293 1.126 2 2 0 0 1 -1.312 2.75 29.011 29.011 0 0 1 -36.081-28.125z" fill="#f29c1f"/><path d="m55 30a25.017 25.017 0 0 0 -31.1-24.249 1.983 1.983 0 0 1 -2.293-1.126 2 2 0 0 1 1.312-2.75 29 29 0 0 1 26.911 49.275l2 2a.542.542 0 0 1 -.31.93l-7.9.92a.568.568 0 0 1 -.62-.62l.92-7.9a.549.549 0 0 1 .94-.31l2.14 2.14a24.9 24.9 0 0 0 8-18.31z" fill="#f0c419"/><path d="m26.562 38c-.028 0-.056 0-.084 0a2 2 0 0 1 -1.478-.75l-2.561-3a2 2 0 1 1 3.123-2.5l1.127 1.206 7.859-9.333a2 2 0 0 1 2.9 2.751l-9.438 11a2 2 0 0 1 -1.448.626z" fill="#ecf0f1"/></g></svg>