<svg id="Capa_1" enable-background="new 0 0 512 512" height="512" viewBox="0 0 512 512" width="512" xmlns="http://www.w3.org/2000/svg"><g><g><g><g><g><g><g><circle cx="256" cy="256" fill="#ffce00" r="256"/></g></g></g></g></g></g><path d="m512 256c0-6.754-.262-13.446-.775-20.068l-74.79-74.79-25.681 11.254-58.333-58.333-292.109 192.414 93.61 93.61-16.697 26.695 82.695 82.695c11.788 1.663 23.834 2.523 36.08 2.523 141.385 0 256-114.615 256-256z" fill="#ffa300"/><g><path d="m193.711 426.782h-56.485l-42.86-146.947h69.8z" fill="#414952"/></g><g><path d="m310.174 127.972-220.013 62.453v51.713l141.233 9.51 78.78-9.51z" fill="#fff"/></g><g><path d="m90.161 240.414v54.098l220.013 62.453v-116.551z" fill="#e9edf5"/></g><g><path d="m352.421 114.064h-62.452v128.074l27.876 5.454 34.576-5.454z" fill="#7e8596"/></g><g><path d="m289.969 240.414h62.453v130.459h-62.453z" fill="#636978"/></g><g><path d="m131.886 178.46h-71.574v63.678l34.054 5.454 37.52-5.454z" fill="#ff8870"/></g><g><path d="m60.312 240.414h71.574v66.063h-71.574z" fill="#ff583e"/></g><g><path d="m457.666 225.527h-57.181v15.749l28.59 4.541 28.591-4.541z" fill="#fff"/></g><g><path d="m400.485 241.276h57.181v15.875h-57.181z" fill="#e9edf5"/></g><g><g><path d="m377.246 156.294h57.181v29.365h-57.181z" fill="#fff" transform="matrix(.707 -.707 .707 .707 -2.032 337.048)"/></g><g><path d="m377.246 299.278h57.181v29.365h-57.181z" fill="#e9edf5" transform="matrix(.707 .707 -.707 .707 340.87 -195.013)"/></g></g></g></svg>